<svg id="Layer_1" data-name="Layer 1" xmlns="http://www.w3.org/2000/svg" viewBox="0 0 64 64">
    <path fill="#47474f" d="M59.48,13.68h-55a.75.75,0,1,1,0-1.5h55a.75.75,0,0,1,0,1.5Z"/>
    <path fill="#47474f" d="M27.19,35.55H12.87a3.16,3.16,0,0,1-3.15-3.16V20.57a3.16,3.16,0,0,1,3.15-3.16H27.19a3.17,3.17,0,0,1,3.16,3.16V32.39A3.17,3.17,0,0,1,27.19,35.55ZM12.87,18.91a1.65,1.65,0,0,0-1.65,1.66V32.39a1.65,1.65,0,0,0,1.65,1.66H27.19a1.66,1.66,0,0,0,1.66-1.66V20.57a1.66,1.66,0,0,0-1.66-1.66Z"/>
    <path fill="#47474f" d="M24.81,25H15.25a.75.75,0,0,1,0-1.5h9.56a.75.75,0,0,1,0,1.5Z"/>
    <path fill="#47474f" d="M24.81,29.42H15.25a.75.75,0,0,1,0-1.5h9.56a.75.75,0,1,1,0,1.5Z"/>
    <path fill="#47474f" d="M50.9,57.25H36.59a3.16,3.16,0,0,1-3.16-3.15V42.27a3.17,3.17,0,0,1,3.16-3.16H50.9a3.17,3.17,0,0,1,3.16,3.16V54.1A3.16,3.16,0,0,1,50.9,57.25ZM36.59,40.61a1.66,1.66,0,0,0-1.66,1.66V54.1a1.65,1.65,0,0,0,1.66,1.65H50.9a1.65,1.65,0,0,0,1.66-1.65V42.27a1.66,1.66,0,0,0-1.66-1.66Z"/>
    <path fill="#47474f" d="M48.52,46.74H39a.75.75,0,0,1,0-1.5h9.55a.75.75,0,0,1,0,1.5Z"/>
    <path fill="#47474f" d="M48.52,51.13H39a.75.75,0,0,1,0-1.5h9.55a.75.75,0,0,1,0,1.5Z"/>
    <path fill="#FF764C" d="M10.47,55a.75.75,0,0,1-.46-.15.76.76,0,0,1-.14-1.06L14,48.44a.77.77,0,0,1,.56-.29.76.76,0,0,1,.59.24l3.48,3.77L23.2,46a.76.76,0,0,1,.58-.3.83.83,0,0,1,.6.28l5.8,7.11a.75.75,0,0,1-.11,1,.74.74,0,0,1-1.05-.1l-5.19-6.37-4.52,6.1a.72.72,0,0,1-.56.3.74.74,0,0,1-.59-.24l-3.49-3.78-3.61,4.66A.75.75,0,0,1,10.47,55Z"/>
    <path fill="#FF764C" d="M17.86,46.37a2.28,2.28,0,1,1,2.28-2.28A2.29,2.29,0,0,1,17.86,46.37Zm0-3.06a.78.78,0,1,0,.78.78A.78.78,0,0,0,17.86,43.31Z"/>
    <path fill="#47474f" d="M27.19,57.25H12.87A3.15,3.15,0,0,1,9.72,54.1V42.27a3.16,3.16,0,0,1,3.15-3.16H27.19a3.17,3.17,0,0,1,3.16,3.16V54.1A3.16,3.16,0,0,1,27.19,57.25ZM12.87,40.61a1.65,1.65,0,0,0-1.65,1.66V54.1a1.65,1.65,0,0,0,1.65,1.65H27.19a1.66,1.66,0,0,0,1.66-1.65V42.27a1.66,1.66,0,0,0-1.66-1.66Z"/>
    <path fill="#47474f" d="M50.9,35.55H36.59a3.17,3.17,0,0,1-3.16-3.16V20.57a3.17,3.17,0,0,1,3.16-3.16H50.9a3.17,3.17,0,0,1,3.16,3.16V32.39A3.17,3.17,0,0,1,50.9,35.55ZM36.59,18.91a1.66,1.66,0,0,0-1.66,1.66V32.39a1.66,1.66,0,0,0,1.66,1.66H50.9a1.66,1.66,0,0,0,1.66-1.66V20.57a1.66,1.66,0,0,0-1.66-1.66Z"/>
    <path fill="#47474f" d="M38.7,31.58a.77.77,0,0,1-.36-.09.76.76,0,0,1-.29-1l4.88-8.7a.75.75,0,0,1,.64-.38.71.71,0,0,1,.66.36l5.2,8.71a.75.75,0,0,1-1.29.77l-4.53-7.6L39.36,31.2A.77.77,0,0,1,38.7,31.58Z"/>
    <path fill="#47474f" d="M47.07,28.72H40.31a.75.75,0,0,1,0-1.5h6.76a.75.75,0,0,1,0,1.5Z"/>
    <path fill="#47474f" d="M54.73,8.22H52.46a.75.75,0,1,1,0-1.5h2.27a.75.75,0,0,1,0,1.5Z"/>
    <path fill="#47474f" d="M49.66,8.22H47.39a.75.75,0,1,1,0-1.5h2.27a.75.75,0,0,1,0,1.5Z"/>
    <path fill="#47474f" d="M44.59,8.22H42.32a.75.75,0,1,1,0-1.5h2.27a.75.75,0,0,1,0,1.5Z"/>
    <path fill="#47474f" d="M57.39,62.75H6.61a2.84,2.84,0,0,1-2.84-2.84V4.09A2.84,2.84,0,0,1,6.61,1.25H57.39a2.84,2.84,0,0,1,2.84,2.84V59.91A2.84,2.84,0,0,1,57.39,62.75ZM6.61,2.75A1.34,1.34,0,0,0,5.27,4.09V59.91a1.34,1.34,0,0,0,1.34,1.34H57.39a1.34,1.34,0,0,0,1.34-1.34V4.09a1.34,1.34,0,0,0-1.34-1.34Z"/>
</svg>