<svg id="Layer_1" data-name="Layer 1" xmlns="http://www.w3.org/2000/svg" viewBox="0 0 13 13"><defs><style>.cls-1{fill:#25aa5c;}.cls-1,.cls-2{stroke:#fff;stroke-linecap:round;stroke-linejoin:round;}.cls-2{fill:none;stroke-width:0.5px;}</style></defs><g id="Layer_2" data-name="Layer 2"><g id="Layer_1-2" data-name="Layer 1-2"><path class="cls-1" d="M13,5.19v3.6c0,3-1.2,4.21-4.21,4.21H5.21C2.21,13,1,11.8,1,8.79V5.19C1,2.2,2.2,1,5.21,1h3.6C11.8,1,13,2.2,13,5.19Z" transform="translate(-0.5 -0.5)"/><path class="cls-2" d="M3.86,4.56a.7.7,0,0,1,.7-.7H9.44a.7.7,0,0,1,.7.7V9.44a.7.7,0,0,1-.7.7H4.56a.7.7,0,0,1-.7-.7Zm0,1.74h6.28M6.3,3.86v6.28" transform="translate(-0.5 -0.5)"/></g></g></svg>