<svg xmlns="http://www.w3.org/2000/svg" viewBox="0 0 14 14"><defs><style>.cls-1{fill:#f2c8c0;}.cls-1,.cls-2{stroke:#fff;stroke-linecap:round;stroke-linejoin:round;}.cls-2{fill:#ca4523;}.cls-3{fill:#fff;}</style></defs><g id="Layer_2" data-name="Layer 2"><g id="Layer_1-2" data-name="Layer 1"><path class="cls-1" d="M13.5,3.68V6.41c0,2.28-.91,3.19-3.19,3.19H9.6v-2c0-2.27-.91-3.18-3.19-3.18h-2V3.68C4.4,1.4,5.31.5,7.59.5h2.73C12.59.5,13.5,1.41,13.5,3.68Z"/><path class="cls-2" d="M9.6,7.58v2.73c0,2.28-.91,3.19-3.19,3.19H3.69C1.42,13.5.5,12.59.5,10.31V7.58c0-2.27.91-3.18,3.19-3.18H6.42C8.69,4.4,9.6,5.31,9.6,7.58Z"/><path class="cls-3" d="M3.38,11.73V6.17h1v5.56Zm.48-2.16v-1H5.63a.62.62,0,0,0,.46-.18.71.71,0,0,0,.18-.5.72.72,0,0,0-.18-.51.61.61,0,0,0-.46-.19H3.86v-1H5.61a1.78,1.78,0,0,1,.91.22A1.51,1.51,0,0,1,7.13,7a1.72,1.72,0,0,1,.22.9,1.7,1.7,0,0,1-.22.89,1.51,1.51,0,0,1-.61.59,1.91,1.91,0,0,1-.91.21Z"/></g></g></svg>