<svg xmlns="http://www.w3.org/2000/svg" viewBox="0 0 14 14"><defs><style>.cls-1{fill:#cbd6f4;}.cls-1,.cls-2{stroke:#fff;stroke-linecap:round;stroke-linejoin:round;}.cls-2{fill:#8393c6;}.cls-3{fill:#fff;}</style></defs><g id="Layer_2" data-name="Layer 2"><g id="Layer_1-2" data-name="Layer 1"><path class="cls-1" d="M13.5,3.68V6.41c0,2.28-.91,3.19-3.19,3.19H9.6v-2c0-2.27-.91-3.18-3.19-3.18h-2V3.68C4.4,1.4,5.31.5,7.59.5h2.73C12.59.5,13.5,1.41,13.5,3.68Z"/><path class="cls-2" d="M9.6,7.58v2.73c0,2.28-.91,3.19-3.19,3.19H3.69C1.42,13.5.5,12.59.5,10.31V7.58c0-2.27.91-3.18,3.19-3.18H6.42C8.69,4.4,9.6,5.31,9.6,7.58Z"/><path class="cls-3" d="M2.52,6.42V8H3V9.87H2.52v1.61H4.13V11H6v.46H7.58V9.87H7.12V8h.46V6.42H6v.46H4.13V6.42ZM3,6.88h.69v.69H3Zm3.45,0h.69v.69H6.43Zm-2.3.46H6V8h.69V9.87H6v.69H4.13V9.87H3.44V8h.69ZM3,10.33h.69V11H3Zm3.45,0h.69V11H6.43Z"/></g></g></svg>