<?xml version="1.0" encoding="utf-8"?>
<!-- Generator: Adobe Illustrator 25.2.1, SVG Export Plug-In . SVG Version: 6.00 Build 0)  -->
<svg version="1.1" id="Layer_1" xmlns="http://www.w3.org/2000/svg" xmlns:xlink="http://www.w3.org/1999/xlink" x="0px" y="0px"
	 viewBox="0 0 13 13" style="enable-background:new 0 0 13 13;" xml:space="preserve">
<style type="text/css">
	.st0{fill:#3F51B5;stroke:#FFFFFF;stroke-linecap:round;stroke-linejoin:round;}
	.st1{fill:#FFFFFF;}
</style>
<g id="Layer_2_2_">
	<g id="Layer_1-2_1_">
		<path class="st0" d="M12.5,4.7v3.6c0,3-1.2,4.2-4.2,4.2H4.7c-3,0-4.2-1.2-4.2-4.2V4.7c0-3,1.2-4.2,4.2-4.2h3.6
			C11.3,0.5,12.5,1.7,12.5,4.7z"/>
	</g>
</g>
<path class="st1" d="M3.3,3.6C2.8,3.6,2.4,4,2.4,4.5V8c0,0.5,0.4,0.9,0.9,0.9l1.8,0c0.3,0,0.6,0.1,0.8,0.3l0.6,0.4l0.6-0.4
	C7.4,9,7.6,8.9,7.9,8.9h1.8c0.5,0,0.9-0.4,0.9-0.9V4.5c0-0.5-0.4-0.9-0.9-0.9H7.9C7.5,3.6,7.1,3.7,6.8,4L6.5,4.1L6.3,4
	C5.9,3.7,5.5,3.6,5.1,3.6H3.3z M3.3,4.2h1.8c0.3,0,0.6,0.1,0.8,0.2l0.6,0.4l0.6-0.4c0.2-0.2,0.5-0.2,0.8-0.2h1.8
	c0.2,0,0.3,0.1,0.3,0.3V8c0,0.2-0.1,0.3-0.3,0.3H7.9c-0.4,0-0.8,0.1-1.1,0.3L6.5,8.8L6.3,8.6C5.9,8.4,5.5,8.3,5.1,8.3H3.3
	C3.2,8.3,3,8.2,3,8V4.5C3,4.3,3.2,4.2,3.3,4.2 M3.6,5.4V6h2.3V5.4H3.6z M7.1,5.4V6h2.3V5.4H7.1z M3.6,6.5v0.6h2.3V6.5H3.6z M7.1,6.5
	v0.6h2.3V6.5H7.1z"/>
</svg>
