<svg xmlns="http://www.w3.org/2000/svg" viewBox="0 0 14 14"><defs><style>.cls-1{fill:#c0f2f2;}.cls-1,.cls-2{stroke:#fff;stroke-linecap:round;stroke-linejoin:round;}.cls-2{fill:#59b9be;}.cls-3{fill:#fff;}</style></defs><g id="Layer_2" data-name="Layer 2"><g id="Layer_1-2" data-name="Layer 1"><path class="cls-1" d="M13.5,3.68V6.41c0,2.28-.91,3.19-3.19,3.19H9.6v-2c0-2.27-.91-3.18-3.19-3.18h-2V3.68C4.4,1.4,5.31.5,7.59.5h2.73C12.59.5,13.5,1.41,13.5,3.68Z"/><path class="cls-2" d="M9.6,7.58v2.73c0,2.28-.91,3.19-3.19,3.19H3.69C1.42,13.5.5,12.59.5,10.31V7.58c0-2.27.91-3.18,3.19-3.18H6.42C8.69,4.4,9.6,5.31,9.6,7.58Z"/><path class="cls-3" d="M6.73,7.16a.06.06,0,0,1,.07.06V9.46a.87.87,0,0,0-.51-.17.89.89,0,1,0,.88.89v-3a.43.43,0,0,0-.47-.43L4.14,7a.43.43,0,0,0-.4.43V9.74a.85.85,0,0,0-.51-.17.89.89,0,1,0,.88.89v-3a.06.06,0,0,1,.06-.06Z"/></g></g></svg>