<svg id="Layer_1" data-name="Layer 1" xmlns="http://www.w3.org/2000/svg" viewBox="0 0 13 13"><defs><style>.cls-1{fill:#c663a0;stroke:#fff;stroke-linecap:round;stroke-linejoin:round;}.cls-2{fill:#fff;}</style></defs><g id="Layer_2" data-name="Layer 2"><g id="Layer_1-2" data-name="Layer 1-2"><path class="cls-1" d="M13,5.19v3.6c0,3-1.2,4.21-4.21,4.21H5.21C2.21,13,1,11.8,1,8.79V5.19C1,2.2,2.2,1,5.21,1h3.6C11.8,1,13,2.2,13,5.19Z" transform="translate(-0.5 -0.5)"/><path class="cls-2" d="M8.42,4.14H5.62a.35.35,0,0,0-.36.33v0H8.78a.34.34,0,0,0-.33-.35h0M9.49,5.22a.35.35,0,0,0-.33-.36H4.86a.34.34,0,0,0-.35.33v.39h5Zm.71.36L10,5.36v.57H4V5.36l-.21.22c-.22.21-.36.26-.28.71s.5,2.89.55,3.22a.46.46,0,0,0,.44.35h5a.46.46,0,0,0,.44-.35c0-.33.46-2.77.55-3.22a.56.56,0,0,0-.28-.71M8.42,7.71a.36.36,0,0,1-.35.36H5.93a.35.35,0,0,1-.31-.36h0V7.07H6v.71h2.1V7.07h.35Z" transform="translate(-0.5 -0.5)"/></g></g></svg>