<svg id="Layer_1" data-name="Layer 1" xmlns="http://www.w3.org/2000/svg" viewBox="0 0 13 13"><defs><style>.cls-1{fill:#9258a0;stroke:#fff;stroke-linecap:round;stroke-linejoin:round;}.cls-2{fill:#fff;}</style></defs><g id="Layer_2" data-name="Layer 2"><g id="Layer_1-2" data-name="Layer 1-2"><path class="cls-1" d="M13,5.19v3.6c0,3-1.2,4.21-4.21,4.21H5.21C2.21,13,1,11.8,1,8.79V5.19C1,2.2,2.2,1,5.21,1h3.6C11.8,1,13,2.2,13,5.19Z" transform="translate(-0.5 -0.5)"/><path class="cls-2" d="M9.25,3.76H4.75a1,1,0,0,0-1,1v4.5a1,1,0,0,0,1,1h4.5a1,1,0,0,0,1-1V4.75a1,1,0,0,0-1-1m-4,2.88H4.48V5.92h.73Zm-.73.72h.73v.72H4.48ZM5.92,4.43H8.08v5H5.92ZM9.57,6.64H8.79V5.92h.78Zm-.72.72h.72v.72H8.79Zm.72-2.64v.45H8.79V4.43h.46a.27.27,0,0,1,.27.26M4.75,4.43h.46v.71H4.48V4.75a.27.27,0,0,1,.27-.27M4.48,9.25V8.79h.73v.73H4.75a.27.27,0,0,1-.27-.27m5,0a.27.27,0,0,1-.27.27H8.79V8.79h.78Z" transform="translate(-0.5 -0.5)"/></g></g></svg>