<svg xmlns="http://www.w3.org/2000/svg" viewBox="0 0 14 14"><defs><style>.cls-1{fill:#f4c9e6;}.cls-1,.cls-2{stroke:#fff;stroke-linecap:round;stroke-linejoin:round;}.cls-2{fill:#c663a0;}.cls-3{fill:#fff;}</style></defs><g id="Layer_2" data-name="Layer 2"><g id="Layer_1-2" data-name="Layer 1"><path class="cls-1" d="M13.5,3.68V6.41c0,2.28-.91,3.19-3.19,3.19H9.6v-2c0-2.27-.91-3.18-3.19-3.18h-2V3.68C4.4,1.4,5.31.5,7.59.5h2.73C12.59.5,13.5,1.41,13.5,3.68Z"/><path class="cls-2" d="M9.6,7.58v2.73c0,2.28-.91,3.19-3.19,3.19H3.69C1.42,13.5.5,12.59.5,10.31V7.58c0-2.27.91-3.18,3.19-3.18H6.42C8.69,4.4,9.6,5.31,9.6,7.58Z"/><path class="cls-3" d="M6.13,6.78H4a.26.26,0,0,0-.27.27H6.4a.26.26,0,0,0-.27-.27m.81.82a.26.26,0,0,0-.27-.27H3.43a.26.26,0,0,0-.27.27v.27H6.94Zm.54.27-.16-.16v.43H2.78V7.71l-.16.16c-.16.16-.27.2-.21.54s.38,2.19.42,2.44a.34.34,0,0,0,.33.27H6.94a.34.34,0,0,0,.33-.27c0-.25.35-2.1.42-2.44S7.64,8,7.48,7.87M6.13,9.49a.27.27,0,0,1-.27.27H4.24A.27.27,0,0,1,4,9.49H4V9h.27v.54H5.86V9h.27Z"/></g></g></svg>