<?xml version="1.0" encoding="utf-8"?>
<!-- Generator: Adobe Illustrator 25.2.1, SVG Export Plug-In . SVG Version: 6.00 Build 0)  -->
<svg version="1.1" id="Layer_1" xmlns="http://www.w3.org/2000/svg" xmlns:xlink="http://www.w3.org/1999/xlink" x="0px" y="0px"
	 viewBox="0 0 14 14" style="enable-background:new 0 0 14 14;" xml:space="preserve">
<style type="text/css">
	.st0{fill:#B6C1EF;stroke:#FFFFFF;stroke-linecap:round;stroke-linejoin:round;}
	.st1{fill:#3F51B5;stroke:#FFFFFF;stroke-linecap:round;stroke-linejoin:round;}
	.st2{fill:#FFFFFF;}
</style>
<g id="Layer_2_1_">
	<g id="Layer_1-2">
		<path class="st0" d="M13.5,3.7v2.7c0,2.3-0.9,3.2-3.2,3.2H9.6v-2c0-2.3-0.9-3.2-3.2-3.2h-2V3.7c0-2.3,0.9-3.2,3.2-3.2h2.7
			C12.6,0.5,13.5,1.4,13.5,3.7z"/>
		<path class="st1" d="M9.6,7.6v2.7c0,2.3-0.9,3.2-3.2,3.2H3.7c-2.3,0-3.2-0.9-3.2-3.2V7.6c0-2.3,0.9-3.2,3.2-3.2h2.7
			C8.7,4.4,9.6,5.3,9.6,7.6z"/>
	</g>
</g>
<path class="st2" d="M2.5,6.8c-0.3,0-0.6,0.3-0.6,0.6v2.7c0,0.4,0.3,0.7,0.7,0.7H4c0.2,0,0.4,0.1,0.6,0.2l0.5,0.3L5.6,11
	c0.2-0.1,0.4-0.2,0.6-0.2h1.4c0.4,0,0.7-0.3,0.7-0.7V7.4c0-0.4-0.3-0.7-0.7-0.7H6C5.7,6.8,5.4,6.9,5.2,7L5,7.2L4.8,7
	C4.5,6.9,4.2,6.8,3.9,6.8H2.5z M2.5,7.2h1.4c0.2,0,0.4,0.1,0.6,0.2L5,7.7l0.5-0.3c0.2-0.1,0.4-0.2,0.6-0.2h1.4
	c0.1,0,0.2,0.1,0.2,0.2v2.7c0,0.1-0.1,0.2-0.2,0.2H6c-0.3,0-0.6,0.1-0.9,0.3l-0.2,0.1l-0.2-0.1c-0.3-0.2-0.6-0.3-0.9-0.3H2.5
	c-0.1,0-0.2-0.1-0.2-0.2V7.4C2.3,7.3,2.4,7.2,2.5,7.2 M2.8,8.1v0.4h1.8V8.1H2.8z M5.4,8.1v0.4h1.8V8.1H5.4z M2.8,9v0.4h1.8V9H2.8z
	 M5.4,9v0.4h1.8V9H5.4z"/>
</svg>
