<svg id="Layer_1" data-name="Layer 1" xmlns="http://www.w3.org/2000/svg" viewBox="0 0 13 13"><defs><style>.cls-1{fill:#ca4523;stroke:#fff;stroke-linecap:round;stroke-linejoin:round;}.cls-2{fill:#fff;}</style></defs><g id="Layer_2" data-name="Layer 2"><g id="Layer_1-2" data-name="Layer 1-2"><path class="cls-1" d="M13,5.19v3.6c0,3-1.2,4.21-4.21,4.21H5.21C2.21,13,1,11.8,1,8.79V5.19C1,2.2,2.2,1,5.21,1h3.6C11.8,1,13,2.2,13,5.19Z" transform="translate(-0.5 -0.5)"/><path class="cls-2" d="M4.8,10.67V3.33H6.12v7.34Zm.63-2.85V6.5H7.76a.81.81,0,0,0,.61-.24,1,1,0,0,0,.24-.66,1,1,0,0,0-.24-.67.79.79,0,0,0-.61-.25H5.43V3.36H7.74a2.39,2.39,0,0,1,1.2.29,2,2,0,0,1,.8.78A2.15,2.15,0,0,1,10,5.62a2.1,2.1,0,0,1-.29,1.17,2,2,0,0,1-.8.78,2.49,2.49,0,0,1-1.2.27Z" transform="translate(-0.5 -0.5)"/></g></g></svg>