<svg xmlns="http://www.w3.org/2000/svg" viewBox="0 0 14 14"><defs><style>.cls-1{fill:#ebc9f4;}.cls-1,.cls-2{stroke:#fff;stroke-linecap:round;stroke-linejoin:round;}.cls-2{fill:#9258a0;}.cls-3{fill:#fff;}</style></defs><g id="Layer_2" data-name="Layer 2"><g id="Layer_1-2" data-name="Layer 1"><path class="cls-1" d="M13.5,3.68V6.41c0,2.28-.91,3.19-3.19,3.19H9.6v-2c0-2.27-.91-3.18-3.19-3.18h-2V3.68C4.4,1.4,5.31.5,7.59.5h2.73C12.59.5,13.5,1.41,13.5,3.68Z"/><path class="cls-2" d="M9.6,7.58v2.73c0,2.28-.91,3.19-3.19,3.19H3.69C1.42,13.5.5,12.59.5,10.31V7.58c0-2.27.91-3.18,3.19-3.18H6.42C8.69,4.4,9.6,5.31,9.6,7.58Z"/><path class="cls-3" d="M6.76,6.49H3.34a.76.76,0,0,0-.75.75v3.42a.76.76,0,0,0,.75.75H6.76a.76.76,0,0,0,.75-.75V7.24a.76.76,0,0,0-.75-.75M3.69,8.68H3.14V8.13h.55Zm-.55.54h.55v.55H3.14ZM4.23,7H5.87v3.82H4.23ZM7,8.68H6.41V8.13H7Zm-.55.54H7v.55H6.41Zm.55-2v.34H6.41V7h.35a.2.2,0,0,1,.2.2M3.34,7h.35v.54H3.14V7.24a.2.2,0,0,1,.2-.2m-.2,3.62v-.35h.55v.55H3.34a.2.2,0,0,1-.2-.2m3.82,0a.2.2,0,0,1-.2.2H6.41v-.55H7Z"/></g></g></svg>