<svg id="Layer_1" data-name="Layer 1" xmlns="http://www.w3.org/2000/svg" viewBox="0 0 94 94">
    <path fill="#47474f" d="M86.79,69.82H7.21a6,6,0,0,1-6-6V18.56a6,6,0,0,1,6-6H86.79a6,6,0,0,1,6,6V63.85A6,6,0,0,1,86.79,69.82ZM7.21,14.1a4.46,4.46,0,0,0-4.46,4.46V63.85a4.47,4.47,0,0,0,4.46,4.47H86.79a4.47,4.47,0,0,0,4.46-4.47V18.56a4.46,4.46,0,0,0-4.46-4.46Z"/>
    <path fill="#47474f" d="M56.18,77.12H37.82a.74.74,0,0,1-.75-.75v-7.3a.74.74,0,0,1,.75-.75H56.18a.74.74,0,0,1,.75.75v7.3A.74.74,0,0,1,56.18,77.12Zm-17.61-1.5H55.43v-5.8H38.57Z"/>
    <path fill="#47474f" d="M67.22,81.4H26.78a.74.74,0,0,1-.75-.75,5,5,0,0,1,5-5H62.94a5,5,0,0,1,5,5A.74.74,0,0,1,67.22,81.4ZM27.61,79.9H66.39a3.54,3.54,0,0,0-3.45-2.78H31.06A3.54,3.54,0,0,0,27.61,79.9Z"/>
    <path fill="#FF764C" d="M45.32,63.76a23.78,23.78,0,1,1,22-14.63.75.75,0,0,1-1.39-.58A22.26,22.26,0,1,0,54.39,60.34.75.75,0,0,1,55,61.71,23.69,23.69,0,0,1,45.32,63.76Z"/>
    <path fill="#FF764C" d="M45.32,63.76c-7.23,0-13.11-10.68-13.11-23.81s5.88-23.8,13.11-23.8S58.42,26.83,58.42,40a43.88,43.88,0,0,1-.36,5.66.76.76,0,0,1-.85.64.74.74,0,0,1-.64-.84A42.68,42.68,0,0,0,56.92,40c0-12.3-5.2-22.3-11.6-22.3S33.71,27.65,33.71,40s5.2,22.31,11.61,22.31c2.69,0,5.34-1.86,7.44-5.25A.75.75,0,0,1,54,57.8C51.65,61.64,48.55,63.76,45.32,63.76Z"/>
    <path fill="#FF764C" d="M45.32,63.76a.74.74,0,0,1-.75-.75V16.9a.75.75,0,0,1,1.5,0V63A.75.75,0,0,1,45.32,63.76Z"/>
    <path fill="#FF764C" d="M68.37,40.7H22.26a.75.75,0,0,1,0-1.5H68.37a.75.75,0,0,1,0,1.5Z"/>
    <path fill="#FF764C" d="M45.32,30.68A73.33,73.33,0,0,1,25.83,28a.75.75,0,1,1,.4-1.44,72.08,72.08,0,0,0,38.17,0,.76.76,0,0,1,.93.52.75.75,0,0,1-.53.92A73.31,73.31,0,0,1,45.32,30.68Z"/>
    <path fill="#FF764C" d="M26,53.34a.75.75,0,0,1-.19-1.48,79.63,79.63,0,0,1,25.08-2.24.75.75,0,0,1-.11,1.5,77.51,77.51,0,0,0-24.6,2.2Z"/>
    <path fill="#47474f" d="M56.46,66.72h0a.76.76,0,0,1-.68-.5L47.2,42.39a.75.75,0,0,1,1-1L72,50a.76.76,0,0,1,.49.68.74.74,0,0,1-.44.71l-7,3.12,7.19,7.19a.74.74,0,0,1,0,1.06L70.38,64.6h0l-1.86,1.87a.75.75,0,0,1-1.06,0l-7.2-7.2-3.11,7A.76.76,0,0,1,56.46,66.72ZM60,57.22a.75.75,0,0,1,.53.22L68,64.88l2.66-2.67-7.43-7.43a.76.76,0,0,1-.21-.67.78.78,0,0,1,.43-.55l6.29-2.8L49.15,43.38,56.54,64l2.8-6.28a.75.75,0,0,1,.54-.44Zm9.83,6.85h0Z"/>
</svg>