<svg xmlns="http://www.w3.org/2000/svg" viewBox="0 0 978.75 978.75">
    <defs>
        <style>.cls-1{fill:none;}.cls-2{fill:#fff;}.cls-3{fill:#fff;stroke:#fff;stroke-miterlimit:10;}</style>
    </defs>
    <g id="Layer_2" data-name="Layer 2">
        <g id="Layer_1-2" data-name="Layer 1">
            <g id="ICON">
                <path class="cls-1"
                      d="M432.1,810c-2.61,42.71-13.25,95.85-43.62,135H590.27c-30.37-39.15-41-92.31-43.62-135Z"/>
                <path class="cls-1"
                      d="M523.13,426.31v-171h-67.5v171a16.88,16.88,0,0,1-16.88,16.88H422.57l66.81,86.15,66.8-86.15H540A16.88,16.88,0,0,1,523.13,426.31Z"/>
                <polygon class="cls-1" points="573.75 49.61 573.75 135 666.9 135 573.75 49.61"/>
                <path class="cls-2"
                      d="M404.11,624.38H574.64a16.88,16.88,0,0,0,0-33.76H404.11a16.88,16.88,0,0,0,0,33.76Z"/>
                <path class="cls-2"
                      d="M320.62,523.12h50.63a16.87,16.87,0,0,0,0-33.74H320.62a16.88,16.88,0,0,1-16.87-16.88V50.62a16.88,16.88,0,0,1,16.87-16.87H540V151.88a16.88,16.88,0,0,0,16.88,16.87H675V472.5a16.88,16.88,0,0,1-16.87,16.88H607.5a16.87,16.87,0,0,0,0,33.74h50.63a50.63,50.63,0,0,0,50.62-50.62V135a16.89,16.89,0,0,0-5.47-12.44L574.41,4.44A16.86,16.86,0,0,0,563,0H320.62A50.62,50.62,0,0,0,270,50.62V472.5A50.62,50.62,0,0,0,320.62,523.12ZM573.75,49.61,666.9,135H573.75Z"/>
                <path class="cls-3"
                      d="M540,221.6H438.75a16.87,16.87,0,0,0-16.87,16.88v171H388.13a16.88,16.88,0,0,0-13.34,27.22L476,567.22a16.88,16.88,0,0,0,26.67,0L604,436.66a16.88,16.88,0,0,0-13.33-27.22H556.88v-171A16.88,16.88,0,0,0,540,221.6ZM489.38,529.34l-66.81-86.15h16.18a16.88,16.88,0,0,0,16.88-16.88v-171h67.5v171A16.88,16.88,0,0,0,540,443.19h16.18Z"/>
                <path class="cls-2"
                      d="M16.88,497.81a16.88,16.88,0,0,0,16.87-16.87V253.12a16.87,16.87,0,0,1,16.87-16.87H219.38a16.88,16.88,0,0,0,0-33.75H50.62A50.63,50.63,0,0,0,0,253.12V480.94A16.88,16.88,0,0,0,16.88,497.81Z"/>
                <path class="cls-2"
                      d="M84.38,540A16.88,16.88,0,0,0,67.5,556.88v33.74a16.88,16.88,0,1,0,33.75,0V556.88A16.88,16.88,0,0,0,84.38,540Z"/>
                <path class="cls-2"
                      d="M963.92,217.33a50.57,50.57,0,0,0-35.79-14.83H759.38a16.88,16.88,0,1,0,0,33.75H928.13A16.87,16.87,0,0,1,945,253.12V675H33.75V540A16.88,16.88,0,1,0,0,540V759.38A50.63,50.63,0,0,0,50.63,810h67.5a16.88,16.88,0,0,0,0-33.75H50.63a16.87,16.87,0,0,1-16.88-16.87V708.75H945v50.63a16.87,16.87,0,0,1-16.87,16.87H185.63a16.88,16.88,0,1,0,0,33.75H398.35c-2.7,45.26-14.43,103.73-57.66,135h-28.5a16.88,16.88,0,1,0,0,33.75H666.56a16.88,16.88,0,1,0,0-33.75h-28.5c-43.23-31.29-55-89.74-57.66-135H928.13a50.63,50.63,0,0,0,50.62-50.62V253.12A50.57,50.57,0,0,0,963.92,217.33ZM590.27,945H388.48c30.37-39.15,41-92.29,43.62-135H546.65C549.26,852.69,559.9,905.85,590.27,945Z"/>
                <path fill="#ff764c" class="cls-2" d="M101.25,286.88a16.88,16.88,0,1,0-33.75,0V506.25a16.88,16.88,0,0,0,33.75,0Z"/>
            </g>
        </g>
    </g>
</svg>