<svg id="Layer_1" data-name="Layer 1" xmlns="http://www.w3.org/2000/svg" viewBox="0 0 64 64">
    <path fill="#47474f" d="M14.52,11.7a.76.76,0,0,1-.75-.75V7.32a6.08,6.08,0,0,1,6.08-6.07h23.3a6.08,6.08,0,0,1,6.08,6.07V8.85a.75.75,0,1,1-1.5,0V7.32a4.58,4.58,0,0,0-4.58-4.57H19.85a4.58,4.58,0,0,0-4.58,4.57V11A.75.75,0,0,1,14.52,11.7Z"/>
    <path fill="#47474f" d="M43.15,62.75H19.85a6.08,6.08,0,0,1-6.08-6.07v-27a.75.75,0,0,1,1.5,0v27a4.58,4.58,0,0,0,4.58,4.57h23.3a4.58,4.58,0,0,0,4.58-4.57V52.16a.75.75,0,0,1,1.5,0v4.52A6.08,6.08,0,0,1,43.15,62.75Z"/>
    <path fill="#47474f" d="M33.71,6.53H29.29a.75.75,0,0,1,0-1.5h4.42a.75.75,0,0,1,0,1.5Z"/>
    <path fill="#47474f" d="M50.45,52.91h-4a.75.75,0,0,1-.75-.68l-.24-2.55A10.59,10.59,0,0,1,42.9,48.6l-2,1.62a.75.75,0,0,1-1,0l-2.79-2.8a.73.73,0,0,1-.05-1l1.61-2a10.51,10.51,0,0,1-1.09-2.64l-2.53-.23a.76.76,0,0,1-.68-.75v-4a.75.75,0,0,1,.68-.74l2.53-.24a10.66,10.66,0,0,1,1.09-2.64l-1.61-1.95a.74.74,0,0,1,.05-1l2.79-2.79a.74.74,0,0,1,1-.05l2,1.63A10.22,10.22,0,0,1,45.51,28l.24-2.56a.75.75,0,0,1,.75-.67h4a.75.75,0,0,1,.75.67L51.44,28A10.66,10.66,0,0,1,54.07,29l2-1.63a.74.74,0,0,1,1,.05l2.79,2.79a.74.74,0,0,1,0,1l-1.63,2a10.53,10.53,0,0,1,1.09,2.62l2.53.24a.75.75,0,0,1,.68.74v4a.76.76,0,0,1-.68.75l-2.53.23a10.59,10.59,0,0,1-1.09,2.63l1.63,2a.74.74,0,0,1,0,1l-2.79,2.8a.75.75,0,0,1-1,0l-2-1.62a11.06,11.06,0,0,1-2.63,1.09l-.24,2.54A.75.75,0,0,1,50.45,52.91Zm-3.27-1.5h2.59L50,49a.75.75,0,0,1,.59-.66,9.41,9.41,0,0,0,3.14-1.3.75.75,0,0,1,.89.05l1.85,1.53L58.3,46.8,56.77,45a.74.74,0,0,1-.05-.88A9.55,9.55,0,0,0,58,40.92a.74.74,0,0,1,.66-.58l2.38-.22v-2.6l-2.38-.22a.75.75,0,0,1-.66-.59,9.41,9.41,0,0,0-1.3-3.14.74.74,0,0,1,.05-.88l1.53-1.86L56.47,29l-1.85,1.53a.77.77,0,0,1-.89.06,9.44,9.44,0,0,0-3.14-1.31.74.74,0,0,1-.59-.66l-.23-2.39H47.18L47,28.64a.73.73,0,0,1-.6.66,9.06,9.06,0,0,0-3.11,1.29.77.77,0,0,1-.89-.06L40.5,29l-1.83,1.83,1.52,1.84a.77.77,0,0,1,.05.88,9.54,9.54,0,0,0-1.31,3.16.73.73,0,0,1-.66.59l-2.38.22v2.6l2.38.22a.72.72,0,0,1,.66.59,9.49,9.49,0,0,0,1.31,3.15.78.78,0,0,1-.05.89L38.67,46.8l1.83,1.83,1.85-1.53a.75.75,0,0,1,.89-.05,9,9,0,0,0,3.11,1.28A.75.75,0,0,1,47,49ZM61.81,40.8h0ZM48.48,44.43a5.61,5.61,0,1,1,5.6-5.61A5.62,5.62,0,0,1,48.48,44.43Zm0-9.72a4.11,4.11,0,1,0,4.1,4.11A4.12,4.12,0,0,0,48.48,34.71Z"/>
    <path fill="#FF764C" d="M2.27,27.84a.75.75,0,0,1-.57-1.23l4.58-5.39a1.41,1.41,0,0,1,1-.51,1.42,1.42,0,0,1,1.07.42l4,3.9,5.27-6.49A1.4,1.4,0,0,1,18.66,18a1.37,1.37,0,0,1,1.1.48l6.64,7.42A.76.76,0,0,1,26.34,27a.75.75,0,0,1-1.06-.06L18.7,19.55,13,26.62a.77.77,0,0,1-.55.27.73.73,0,0,1-.56-.21L7.37,22.25,2.85,27.58A.77.77,0,0,1,2.27,27.84Z"/>
    <path fill="#FF764C" d="M11.34,18.82A2.64,2.64,0,1,1,14,16.18,2.65,2.65,0,0,1,11.34,18.82Zm0-3.78a1.14,1.14,0,1,0,1.14,1.14A1.15,1.15,0,0,0,11.34,15Z"/>
    <path fill="#47474f" d="M22.46,30.47H5.57a4.13,4.13,0,0,1-4.13-4.13v-12A4.13,4.13,0,0,1,5.57,10.2H22.46a4.13,4.13,0,0,1,4.13,4.12v12A4.13,4.13,0,0,1,22.46,30.47ZM5.57,11.7a2.63,2.63,0,0,0-2.63,2.62v12A2.63,2.63,0,0,0,5.57,29H22.46a2.63,2.63,0,0,0,2.63-2.63v-12a2.63,2.63,0,0,0-2.63-2.62Z"/>
    <path fill="#47474f" d="M48.48,21.77h-17a.75.75,0,0,1,0-1.5h17a.75.75,0,0,1,0,1.5Z"/>
    <path fill="#47474f" d="M42,17.67H31.5a.75.75,0,0,1,0-1.5H42a.75.75,0,0,1,0,1.5Z"/>
    <path fill="#47474f" d="M54.86,17.67h-10a.75.75,0,0,1,0-1.5h10a.75.75,0,0,1,0,1.5Z"/>
    <path fill="#47474f" d="M37,13.3H31.5a.75.75,0,0,1,0-1.5H37a.75.75,0,0,1,0,1.5Z"/>
    <path fill="#47474f" d="M54.86,13.3H39.77a.75.75,0,0,1,0-1.5H54.86a.75.75,0,0,1,0,1.5Z"/>
    <path fill="#47474f" d="M36.72,6.53H36A.75.75,0,0,1,36,5h.73a.75.75,0,0,1,0,1.5Z"/>
    <path fill="#47474f" d="M31.5,59.29a2.93,2.93,0,1,1,2.93-2.93A2.94,2.94,0,0,1,31.5,59.29Zm0-4.36a1.43,1.43,0,1,0,1.43,1.43A1.43,1.43,0,0,0,31.5,54.93Z"/>
</svg>