<svg xmlns="http://www.w3.org/2000/svg" viewBox="0 0 1570.24 877.86"><defs><style>.cls-1,.cls-4{fill:#fff;}.cls-2{fill:#8283f2;}.cls-3{fill:#c1c1f9;}.cls-4{stroke:#fff;stroke-miterlimit:10;}.cls-5{fill:#00beca;}.cls-6{fill:#80dfe5;}.cls-7{fill:#ff6668;}.cls-8{fill:#ffb3b4;}</style></defs><g id="Layer_2" data-name="Layer 2"><g id="Layer_1-2" data-name="Layer 1"><path class="cls-1" d="M1388.59,382.33l-68.08,20.08,6.08-22.44a44.15,44.15,0,0,0-31.07-54.2l-156-42.3a44.16,44.16,0,0,0-54.2,31.07l-25.56,94.26a44.16,44.16,0,0,0,31.07,54.2l156,42.3a44.16,44.16,0,0,0,54.2-31.07l2.44-9L1352.08,517a17.62,17.62,0,0,0,29.76-7.59l28.61-105.47A17.63,17.63,0,0,0,1388.59,382.33Z"/><path class="cls-2" d="M1483.84,244.34c-33.66-9.13-32.58-35.34-29.53-46.56l24-88.64h0L1108.07,8.71a57.57,57.57,0,0,0-71.32,40.89l-152.16,561A57.55,57.55,0,0,0,925.47,682l437.61,118.69a57.57,57.57,0,0,0,71.32-40.89L1568,267.16Zm-73.39,159.58-28.61,105.47a17.62,17.62,0,0,1-29.76,7.59l-48.61-51.73-2.44,9a44.16,44.16,0,0,1-54.2,31.07l-156-42.3a44.16,44.16,0,0,1-31.07-54.2l25.56-94.26a44.16,44.16,0,0,1,54.2-31.07l156,42.3a44.15,44.15,0,0,1,31.07,54.2l-6.08,22.44,68.08-20.08A17.63,17.63,0,0,1,1410.45,403.92Z"/><polygon class="cls-3" points="1568 267.16 1570.24 267.77 1480.9 108.62 1478.65 108.01 1478.35 109.14 1568.3 266.04 1568 267.16"/><path class="cls-3" d="M1483.84,244.34,1568,267.16l.3-1.12-90-156.9-24,88.64C1451.26,209,1450.18,235.21,1483.84,244.34Z"/><path class="cls-4" d="M470.08,283.18a94.67,94.67,0,0,0-19.35-12c-5.36-2.59-11.67-3.79-16.8-5.21s-11.44-2.62-17.75-3.82c-6.53-2.36-14.23-4.5-23.56-8.75-10.5-4-18.66-8.49-25.88-14.37s-13-10.81-17.47-14.8c-5.59-3.76-3-9.13-7-10.78q-6.3-4.23-14.72-.76c-5.62,2.31-11,5.79-13.6,11.15a29.26,29.26,0,0,0-2.42,18.69L331.23,343.1,352,449.53c-4.91-.26-11-.28-19.63-1s-25,2.46-35.54,4.52-20.59,6.45-31.6,12.25-20.17,14.86-27.7,26.05c-8.69,11.41-11.31,22.85-9.26,33.38,2.29,11.7,7.63,20.37,16.47,28.35a85.56,85.56,0,0,0,33.59,16.51c14,3.33,28.72,4.09,43.7-.05,13.81-3.91,26.21-8.76,35.82-15.5s16.89-13,21.36-21.17,4.28-15.41,5.25-22.88a66.43,66.43,0,0,0-.38-20.57L341.59,271.87c-.69-3.51-.21-7.25,3.07-9.11,2.12-1.62,7-1.37,14,3.34,7.22,5.87,18.89,9.66,29.62,14.85a78.56,78.56,0,0,0,34.32,7.86q16.47.42,26.62,5.73c6.53,2.36,11.64,9.86,14.64,19,2.54,6.79,4.39,10.07,6,12.18s5.77,17.09,8.11,16.63c2.57.71,4.45-2.09,6.1-6a39.91,39.91,0,0,0,3.11-15.18h0c0-6.07-1.35-13.09-2.72-20.11C482,294.21,477.3,289.05,470.08,283.18Z"/><path class="cls-5" d="M434.15,0,48.21,75.44A59,59,0,0,0,1.16,145.35l114.3,584.76a59,59,0,0,0,69.91,47L641.49,688a59,59,0,0,0,47-69.9L588.4,105.84Zm53.06,321.11a39.91,39.91,0,0,1-3.11,15.18c-1.65,4-3.53,6.76-6.1,6-2.34.46-6.48-14.52-8.11-16.63s-3.48-5.39-6-12.18c-3-9.13-8.11-16.63-14.64-19q-10.14-5.31-26.62-5.73A78.56,78.56,0,0,1,388.29,281c-10.73-5.19-22.4-9-29.62-14.85-7-4.71-11.89-5-14-3.34-3.28,1.86-3.76,5.6-3.07,9.11L384.11,489.4a66.43,66.43,0,0,1,.38,20.57c-1,7.47-.77,14.72-5.25,22.88S367.5,547.29,357.88,554s-22,11.59-35.82,15.5c-15,4.14-29.7,3.38-43.7.05a85.56,85.56,0,0,1-33.59-16.51c-8.84-8-14.18-16.65-16.47-28.35-2.05-10.53.57-22,9.26-33.38,7.53-11.19,16.69-20.26,27.7-26.05s21.07-10.2,31.6-12.25,26.9-5.26,35.54-4.52,14.72.76,19.63,1L331.23,343.1,311.57,242.52A29.26,29.26,0,0,1,314,223.83c2.59-5.36,8-8.84,13.6-11.15s10.52-2.06,14.72.76c4,1.65,1.37,7,7,10.78q6.64,6,17.47,14.8c7.22,5.88,15.38,10.35,25.88,14.37,9.33,4.25,17,6.39,23.56,8.75,6.31,1.2,12.61,2.39,17.75,3.82s11.44,2.62,16.8,5.21a94.67,94.67,0,0,1,19.35,12c7.22,5.87,11.87,11,14.41,17.82,1.37,7,2.74,14,2.72,20.11Z"/><path class="cls-6" d="M434.15,0l-2.34.46L450.1,94c2.29,11.7,13.16,36.28,48.25,29.42l90-17.6-11.18-7.53Z"/><path class="cls-7" d="M960.57,102.15H947.64l155.14,155.14V244.36Z"/><path class="cls-1" d="M672.26,460.27c38.79,0,71.11-32.32,71.11-71.11s-32.32-71.11-71.11-71.11c-40.08,0-72.4,32.32-71.1,71.11C601.16,428,633.48,460.27,672.26,460.27Z"/><path class="cls-1" d="M973.5,659.36,870.07,409.85c-1.29-2.59-5.17-5.18-7.76-5.18s-6.46,1.3-7.76,3.88L734.32,605.07l-36.2-58.18a7.1,7.1,0,0,0-6.46-3.88q-5.82,0-7.76,3.88L607.62,658.07a11.07,11.07,0,0,0,0,9c1.29,2.59,5.17,3.88,7.76,3.88H967a7.11,7.11,0,0,0,6.47-3.88h0A8.26,8.26,0,0,0,973.5,659.36Z"/><path class="cls-7" d="M1089.85,244.36,960.57,115.08h0l-12.93-12.93H533.93c-36.2,0-64.64,28.44-64.64,64.64V813.21c0,36.2,28.44,64.65,64.64,64.65h504.21c36.2,0,64.64-28.45,64.64-64.65V257.29ZM672.26,318.05c38.79,0,71.11,32.32,71.11,71.11s-32.32,71.11-71.11,71.11-71.1-32.32-71.1-71.11C599.86,350.37,632.18,318.05,672.26,318.05ZM973.5,667.12A7.11,7.11,0,0,1,967,671H615.38c-2.59,0-6.47-1.29-7.76-3.88a11.07,11.07,0,0,1,0-9L683.9,546.89q1.94-3.89,7.76-3.88a7.1,7.1,0,0,1,6.46,3.88l36.2,58.18L854.55,408.55c1.3-2.58,5.18-3.88,7.76-3.88s6.47,2.59,7.76,5.18L973.5,659.36a8.26,8.26,0,0,1,0,7.76Z"/><path class="cls-8" d="M961.86,100.86h-2.59V204.28c0,12.93,6.47,41.37,45.25,41.37h99.55Z"/></g></g></svg>