<?xml version="1.0" encoding="utf-8"?>
<!-- Generator: Adobe Illustrator 25.2.1, SVG Export Plug-In . SVG Version: 6.00 Build 0)  -->
<svg version="1.1" id="Layer_1" xmlns="http://www.w3.org/2000/svg" xmlns:xlink="http://www.w3.org/1999/xlink" x="0px" y="0px"
	 viewBox="0 0 477.5 76.1" style="enable-background:new 0 0 477.5 76.1;" xml:space="preserve">
<style type="text/css">
	.st0{fill:#EC9322;}
	.st1{fill:#47474F;}
	.st2{fill:#FFFFFF;}
</style>
<g id="Layer_2_1_">
	<g id="Layer_1-2">
		<path class="st0" d="M102.3,58.9h-12v-45h26.6v9.8h-14.6v8.6h13.5V42h-13.5V58.9z"/>
		<path class="st0" d="M140.6,23.4c4.4,0,7.9,1.1,10.3,3.3c2.5,2.2,3.7,5.3,3.7,9.3v22.8h-8.3l-2.3-4.6h-0.2c-0.9,1.1-1.9,2.1-3,3
			c-1.1,0.8-2.3,1.4-3.6,1.7c-1.6,0.4-3.2,0.6-4.9,0.5c-1.9,0-3.7-0.4-5.4-1.2c-1.6-0.8-2.9-2.1-3.8-3.7c-1-2-1.5-4.1-1.4-6.3
			c0-3.7,1.3-6.5,3.9-8.3c2.6-1.8,6.3-2.8,11.2-3l5.8-0.2v-0.5c0.1-1.2-0.3-2.4-1.2-3.3c-0.9-0.7-2-1.1-3.1-1
			c-1.6,0-3.1,0.3-4.6,0.7c-1.7,0.5-3.4,1.1-5.1,1.9l-3.5-7.9c2.2-1.1,4.5-1.9,6.8-2.3C134.9,23.7,137.7,23.4,140.6,23.4z
			 M142.7,43.3l-2.8,0.1c-1.6-0.1-3.3,0.3-4.7,1.2c-0.9,0.7-1.4,1.8-1.3,2.9c-0.1,1,0.3,1.9,1,2.6c0.7,0.6,1.6,0.9,2.5,0.8
			c1.4,0,2.7-0.5,3.7-1.4c1-0.9,1.6-2.2,1.6-3.6L142.7,43.3z"/>
		<path class="st0" d="M188.7,48.2c0,2.1-0.5,4.1-1.5,5.9c-1.1,1.8-2.8,3.2-4.7,4c-2.7,1.1-5.6,1.6-8.5,1.4c-2.2,0-4.5-0.1-6.7-0.4
			c-2.1-0.3-4.1-0.8-6-1.5V48c2.1,1,4.4,1.7,6.7,2.2c1.8,0.4,3.6,0.6,5.4,0.7c1,0.1,2-0.1,3-0.4c0.6-0.2,0.9-0.7,0.9-1.3
			c0-0.5-0.2-1-0.6-1.3c-0.7-0.5-1.4-0.9-2.2-1.2c-1.1-0.5-2.6-1.1-4.5-1.9c-1.7-0.7-3.3-1.6-4.8-2.6c-1.2-0.9-2.2-2-2.9-3.4
			c-0.7-1.5-1-3.2-0.9-4.8c-0.2-3.1,1.3-6,3.9-7.7c2.6-1.7,6.1-2.6,10.4-2.6c2.2,0,4.4,0.2,6.5,0.8c2.2,0.5,4.3,1.3,6.3,2.2
			l-3.3,7.8c-1.7-0.8-3.4-1.4-5.2-1.9c-1.4-0.4-2.8-0.6-4.2-0.7c-0.7,0-1.5,0.1-2.2,0.4c-0.5,0.2-0.8,0.6-0.8,1.1
			c0,0.4,0.2,0.9,0.5,1.1c0.6,0.5,1.3,0.9,2,1.1c1,0.4,2.5,1,4.4,1.8c1.8,0.7,3.4,1.6,5,2.6c1.3,0.9,2.3,2,3,3.4
			C188.5,44.7,188.8,46.5,188.7,48.2z"/>
		<path class="st0" d="M212.5,50c1,0,2-0.1,3-0.3c1-0.2,1.9-0.5,2.8-0.9v8.8c-1.3,0.6-2.7,1.1-4.2,1.4c-1.8,0.4-3.7,0.6-5.6,0.5
			c-2,0-4.1-0.3-6-1.1c-1.7-0.7-3.1-2-4-3.7c-1.1-2.3-1.6-4.8-1.4-7.3V33.1h-4.2v-4.9l5.4-3.8l3.1-7.3h7.9v7h8.6v9h-8.6v13.6
			c-0.1,0.9,0.2,1.8,0.9,2.5C210.7,49.8,211.6,50.1,212.5,50z"/>
		<path class="st1" d="M245.1,23.2c-1.3,0-2.7,0.3-3.9,0.9c-1.2,0.6-2.2,1.5-2.9,2.6c-0.9,1.3-1.5,2.7-1.8,4.2
			c-0.4,1.8-0.7,3.7-0.6,5.6c-0.1,2.4,0.3,4.8,1.1,7.2c0.6,1.8,1.7,3.3,3.3,4.4c1.7,1,3.6,1.5,5.5,1.5c2,0,3.9-0.3,5.8-0.8
			c1.9-0.6,3.8-1.2,5.6-2V57c-2,0.9-4,1.5-6.1,1.9c-2.2,0.4-4.4,0.6-6.6,0.6c-4.9,0-8.9-1-12-2.9c-3.1-1.9-5.5-4.7-6.9-8.1
			c-1.5-3.8-2.3-7.9-2.2-12c0-3.2,0.5-6.3,1.4-9.3c0.9-2.7,2.3-5.2,4.2-7.4c1.9-2.1,4.2-3.8,6.8-4.8c3-1.2,6.1-1.8,9.3-1.8
			c2.3,0,4.6,0.3,6.9,0.8c2.4,0.5,4.8,1.3,7,2.4l-3.7,9.6c-1.6-0.8-3.3-1.5-5-2C248.7,23.5,246.9,23.2,245.1,23.2z"/>
		<path class="st1" d="M298.6,41.4c0,2.6-0.4,5.3-1.2,7.8c-0.7,2.1-1.9,4.1-3.5,5.7c-1.5,1.6-3.4,2.8-5.5,3.5
			c-2.3,0.8-4.8,1.2-7.3,1.2c-2.4,0-4.7-0.4-6.9-1.2c-4.3-1.5-7.6-4.9-9.1-9.2c-0.9-2.5-1.3-5.1-1.3-7.8c-0.1-3.4,0.6-6.7,2.1-9.8
			c1.3-2.6,3.4-4.7,6-6.1c2.9-1.5,6.1-2.2,9.4-2.1c3.1-0.1,6.2,0.7,8.9,2.1c2.6,1.4,4.7,3.5,6.1,6.1C297.9,34.6,298.7,38,298.6,41.4
			z M276,41.4c0,1.7,0.1,3.4,0.5,5c0.2,1.2,0.8,2.3,1.7,3.1c0.8,0.7,1.9,1.1,3,1.1c1.1,0.1,2.2-0.3,3-1.1c0.8-0.9,1.4-1.9,1.6-3.1
			c0.4-1.6,0.5-3.3,0.5-5c0-1.7-0.1-3.4-0.5-5c-0.2-1.1-0.8-2.2-1.6-3c-0.8-0.7-1.9-1.1-3-1c-1.7-0.1-3.2,0.8-4,2.3
			C276.3,36.8,275.9,39.1,276,41.4L276,41.4z"/>
		<path class="st1" d="M327.2,23.4c3.2-0.1,6.3,0.9,8.8,3c2.3,2,3.4,5.2,3.4,9.8v22.7h-12v-19c0.1-1.8-0.2-3.6-1-5.2
			c-0.6-1.2-1.9-1.9-3.2-1.8c-2-0.2-3.8,0.9-4.6,2.8c-0.9,2.6-1.3,5.3-1.2,8v15.2h-12V24h9.1l1.6,4.6h0.5c0.7-1.1,1.6-2,2.6-2.8
			c1.1-0.8,2.3-1.4,3.5-1.8C324.3,23.6,325.7,23.4,327.2,23.4z"/>
		<path class="st1" d="M356.8,58.9L343.5,24H356l5.9,20.6c0.1,0.2,0.2,0.7,0.3,1.4c0.2,0.7,0.2,1.4,0.2,2.1h0.2c0-0.7,0.1-1.3,0.2-2
			c0.1-0.6,0.3-1.1,0.3-1.5l6.2-20.7H382l-13.3,34.8L356.8,58.9z"/>
		<path class="st1" d="M401.8,23.4c3-0.1,6,0.6,8.8,1.8c2.4,1.1,4.4,3,5.7,5.3c1.4,2.7,2.1,5.8,2,8.9v5.3h-21.5
			c0.1,1.7,0.8,3.3,2,4.5c1.6,1.3,3.6,1.9,5.6,1.8c2,0,4-0.2,6-0.7c1.9-0.5,3.8-1.1,5.6-2V57c-1.7,0.9-3.6,1.5-5.5,1.9
			c-2.5,0.5-5,0.7-7.5,0.6c-3.2,0.1-6.4-0.6-9.4-1.9c-2.7-1.2-5-3.3-6.5-5.8c-1.7-3.1-2.5-6.6-2.4-10.1c-0.1-3.6,0.6-7.1,2.1-10.3
			c1.3-2.6,3.4-4.7,6-6C395.6,24,398.7,23.4,401.8,23.4z M402.2,31.6c-1.3,0-2.6,0.4-3.6,1.3c-1.1,1.1-1.7,2.6-1.7,4.2h10.3
			c0-1-0.2-1.9-0.6-2.8c-0.4-0.8-1-1.5-1.7-2C404.2,31.8,403.2,31.6,402.2,31.6L402.2,31.6z"/>
		<path class="st1" d="M446.1,23.4c0.7,0,1.4,0.1,2.1,0.1l1.6,0.2l-1.1,11.3c-0.5-0.1-1-0.2-1.5-0.3c-0.9-0.1-1.7-0.1-2.6-0.1
			c-0.8,0-1.6,0.1-2.4,0.2c-0.9,0.1-1.7,0.5-2.4,0.9c-0.8,0.5-1.5,1.2-1.9,2.1c-0.5,1.2-0.8,2.5-0.7,3.8v17.1h-12V24h8.9l1.9,5.6
			h0.6c0.6-1.2,1.5-2.2,2.5-3.1c1-0.9,2.1-1.7,3.4-2.3C443.5,23.7,444.8,23.4,446.1,23.4z"/>
		<path class="st1" d="M471.7,50c1,0,2-0.1,3-0.3c0.9-0.2,1.8-0.5,2.8-0.9v8.8c-1.3,0.6-2.7,1.1-4.2,1.4c-1.8,0.4-3.7,0.6-5.6,0.5
			c-2,0-4.1-0.3-6-1.1c-1.7-0.7-3.1-2-4-3.7c-1.1-2.3-1.6-4.8-1.4-7.3V33.1h-4.2v-4.9l5.4-3.8l3.1-7.3h7.9v7h8.6v9h-8.6v13.6
			c-0.1,0.9,0.2,1.8,0.9,2.5C470,49.8,470.8,50.1,471.7,50z"/>
		<circle class="st0" cx="38" cy="38" r="38"/>
		<path class="st2" d="M62.1,21.9l-1.8-8c-0.3-1.2-1.4-1.9-2.6-1.7c-1.2,0.3-1.9,1.4-1.7,2.6l0.6,2.7l-4.8-3.1
			C39.7,6.6,23.5,10,15.5,22c-0.7,1-0.4,2.4,0.6,3.1c1,0.7,2.4,0.4,3.1-0.6c3.2-4.8,8.1-8.2,13.8-9.3H33c5.7-1.2,11.6-0.1,16.5,3.1
			l4.8,3.1L51.5,22c-1.2,0.1-2.2,1.1-2.1,2.3c0.1,1.2,1.1,2.2,2.3,2.1c0.2,0,0.5-0.1,0.7-0.2l7.9-1.8C61.6,24.2,62.3,23.1,62.1,21.9
			z"/>
		<path class="st2" d="M14.6,53.7l1.8,7.9c0.3,1.2,1.5,1.9,2.7,1.6c1.1-0.3,1.8-1.4,1.6-2.5L20,57.9l4.8,3.1
			c12.2,7.9,28.4,4.5,36.4-7.5c0.6-1.1,0.3-2.4-0.8-3c-1-0.6-2.2-0.3-2.9,0.6c-3.2,4.8-8.1,8.2-13.8,9.3h-0.1
			C38,61.6,32,60.5,27.2,57.3l-4.8-3.1l2.7-0.7c1.2-0.3,2-1.4,1.7-2.6c-0.3-1.2-1.4-2-2.6-1.7L16.3,51
			C15.1,51.2,14.3,52.4,14.6,53.7C14.5,53.6,14.6,53.6,14.6,53.7z"/>
		<rect x="10.1" y="31.9" class="st2" width="12.2" height="12.2"/>
		<rect x="54" y="31.9" class="st2" width="12.2" height="12.2"/>
	</g>
</g>
</svg>
