<svg id="Layer_1" data-name="Layer 1" xmlns="http://www.w3.org/2000/svg" viewBox="0 0 21.5 21.5"><defs><style>.cls-1{fill:#aee0f4;}.cls-1,.cls-2{stroke:#fff;}.cls-1,.cls-2,.cls-3,.cls-4{stroke-linecap:round;stroke-linejoin:round;}.cls-2{fill:#3499cc;}.cls-3,.cls-4{fill:none;stroke-width:1.5px;}.cls-3{stroke:#3392cd;}.cls-4{stroke:#3499cc;}</style></defs><path class="cls-1" d="M17.5,7.7v2.7c0,2.3-.9,3.2-3.2,3.2h-.7v-2c0-2.3-.9-3.2-3.2-3.2h-2V7.7c0-2.3.9-3.2,3.2-3.2h2.7C16.6,4.5,17.5,5.4,17.5,7.7Z" transform="translate(-0.25 -0.25)"/><path class="cls-2" d="M13.6,11.6v2.7c0,2.3-.9,3.2-3.2,3.2H7.7c-2.3,0-3.2-.9-3.2-3.2V11.6c0-2.3.9-3.2,3.2-3.2h2.7C12.7,8.4,13.6,9.3,13.6,11.6Z" transform="translate(-0.25 -0.25)"/><path class="cls-3" d="M21,14a7,7,0,0,1-7,7l1.1-1.8" transform="translate(-0.25 -0.25)"/><path class="cls-4" d="M1,8A7,7,0,0,1,8,1L6.9,2.8" transform="translate(-0.25 -0.25)"/></svg>