<?xml version="1.0" encoding="utf-8"?>
<!-- Generator: Adobe Illustrator 25.2.1, SVG Export Plug-In . SVG Version: 6.00 Build 0)  -->
<svg version="1.1" id="Layer_1" xmlns="http://www.w3.org/2000/svg" xmlns:xlink="http://www.w3.org/1999/xlink" x="0px" y="0px"
	 viewBox="0 0 76.1 76.1" style="enable-background:new 0 0 76.1 76.1;" xml:space="preserve">
<style type="text/css">
	.st0{fill:#EC9322;}
	.st1{fill:#FFFFFF;}
</style>
<g id="Layer_2_1_">
	<g id="Layer_1-2">
		<g id="Layer_2-2">
			<g id="Layer_1-2-2">
				<circle class="st0" cx="38" cy="38" r="38"/>
				<path class="st1" d="M58.9,24L57.4,17c-0.2-1-1.2-1.7-2.3-1.5s-1.7,1.2-1.5,2.3l0,0l0.6,2.4l-4.1-2.7c-10.5-6.9-24.7-4-31.6,6.5
					c-0.6,0.9-0.3,2.1,0.5,2.7c0.9,0.6,2.1,0.3,2.7-0.5l0,0c2.8-4.2,7.1-7.1,12-8.1h0.1c4.9-1,10.1,0,14.3,2.7l4.1,2.7l-2.4,0.6
					c-1.1,0-1.9,0.9-1.8,2c0,1.1,0.9,1.9,2,1.8l0,0c0.2,0,0.4-0.1,0.6-0.1l6.9-1.5C58.5,26,59.1,25,58.9,24z"/>
				<path class="st1" d="M17.7,51.5l1.5,6.9c0.3,1,1.3,1.6,2.3,1.4c1-0.2,1.6-1.2,1.4-2.2l-0.5-2.4l4.1,2.7
					c10.5,6.8,24.6,4,31.6-6.5c0.5-0.9,0.2-2.1-0.7-2.6c-0.8-0.5-1.9-0.3-2.5,0.5c-2.8,4.2-7,7.1-11.9,8.1h-0.1
					c-4.9,1-10.1,0.1-14.3-2.7l-4.2-2.7l2.4-0.6c1-0.2,1.7-1.2,1.5-2.3s-1.2-1.7-2.3-1.5l-6.9,1.5C18.1,49.5,17.5,50.5,17.7,51.5
					C17.7,51.5,17.7,51.5,17.7,51.5z"/>
				<rect x="13.8" y="32.7" class="st1" width="10.6" height="10.6"/>
				<rect x="51.9" y="32.7" class="st1" width="10.6" height="10.6"/>
			</g>
		</g>
	</g>
</g>
</svg>
