<?xml version="1.0" encoding="utf-8"?>
<!-- Generator: Adobe Illustrator 25.2.1, SVG Export Plug-In . SVG Version: 6.00 Build 0)  -->
<svg version="1.1" id="Layer_1" xmlns="http://www.w3.org/2000/svg" xmlns:xlink="http://www.w3.org/1999/xlink" x="0px" y="0px"
	 viewBox="0 0 22 22" style="enable-background:new 0 0 22 22;" xml:space="preserve">
<style type="text/css">
	.st0{fill:#AEE0F4;stroke:#FFFFFF;stroke-linecap:round;stroke-linejoin:round;}
	.st1{fill:#3499CC;stroke:#FFFFFF;stroke-linecap:round;stroke-linejoin:round;}
	.st2{fill:none;stroke:#3392CD;stroke-width:1.5;stroke-linecap:round;stroke-linejoin:round;}
	.st3{fill:none;stroke:#3499CC;stroke-width:1.5;stroke-linecap:round;stroke-linejoin:round;}
	.st4{display:none;fill:#FFFFFF;}
	.st5{display:none;fill:#FFFFFF;stroke:#000000;stroke-linecap:round;stroke-linejoin:round;stroke-miterlimit:5.3333;}
	.st6{display:none;fill:none;stroke:#000000;stroke-linecap:round;stroke-linejoin:round;stroke-miterlimit:5.3333;}
	
		.st7{display:none;fill:#FFFFFF;stroke:#FFFFFF;stroke-width:0.5;stroke-linecap:round;stroke-linejoin:round;stroke-miterlimit:5.3333;}
	
		.st8{display:none;fill:none;stroke:#FFFFFF;stroke-width:0.5;stroke-linecap:round;stroke-linejoin:round;stroke-miterlimit:5.3333;}
	.st9{display:none;}
	.st10{fill:#FFFFFF;}
</style>
<path class="st0" d="M17.5,7.7v2.7c0,2.3-0.9,3.2-3.2,3.2h-0.7v-2c0-2.3-0.9-3.2-3.2-3.2h-2V7.7c0-2.3,0.9-3.2,3.2-3.2h2.7
	C16.6,4.5,17.5,5.4,17.5,7.7z"/>
<path class="st1" d="M13.6,11.6v2.7c0,2.3-0.9,3.2-3.2,3.2H7.7c-2.3,0-3.2-0.9-3.2-3.2v-2.7c0-2.3,0.9-3.2,3.2-3.2h2.7
	C12.7,8.4,13.6,9.3,13.6,11.6z"/>
<path class="st2" d="M21,14c0,3.9-3.1,7-7,7l1.1-1.8"/>
<path class="st3" d="M1,8c0-3.9,3.1-7,7-7L6.9,2.8"/>
<polygon class="st4" points="5.9,15.4 12.2,15.4 10.2,12.8 8.7,14.9 7.5,13.3 "/>
<path class="st4" d="M7.2,11.7c0.2,0,0.4-0.1,0.6-0.2C7.9,11.3,8,11.1,8,10.9c0-0.2-0.1-0.4-0.2-0.6c-0.2-0.2-0.3-0.2-0.6-0.2
	s-0.4,0.1-0.6,0.2c-0.2,0.2-0.2,0.3-0.2,0.6s0.1,0.4,0.2,0.6C6.8,11.6,7,11.7,7.2,11.7"/>
<path class="st5" d="M4.4,9.4v2.1c0,0.3-0.2,0.5-0.5,0.5H1.8 M3.9,16.1H7 M3.9,14H7 M9.1,9.9v8.3c0,0.3-0.2,0.5-0.5,0.5H2.4
	c-0.3,0-0.5-0.2-0.5-0.5V12c0-0.1,0.1-0.3,0.2-0.4l2-2c0.1-0.1,0.2-0.2,0.4-0.2h4.2C8.9,9.4,9.1,9.6,9.1,9.9"/>
<path class="st6" d="M12.7,2.8v2.1c0,0.3-0.2,0.5-0.5,0.5h-2.1 M12.2,9.5h3.1 M12.2,7.4h3.1 M17.4,3.3v8.3c0,0.3-0.2,0.5-0.5,0.5
	h-6.2c-0.3,0-0.5-0.2-0.5-0.5V5.3c0-0.1,0.1-0.3,0.2-0.4l2-2c0.1-0.1,0.2-0.2,0.4-0.2H17C17.1,2.8,17.4,3,17.4,3.3"/>
<rect x="7.2" y="11.9" class="st7" width="3.6" height="0.3"/>
<rect x="7.2" y="13.4" class="st7" width="3.6" height="0.3"/>
<path class="st4" d="M10.8,10.9c0-0.1-0.1-0.2-0.2-0.1l-2.8,0.4c-0.1,0-0.1,0.1-0.1,0.1v2.3c-0.1,0-0.2-0.1-0.3-0.1
	c-0.5,0-1,0.4-1,1c0,0.5,0.4,1,1,1s1-0.4,1-1c0,0,0,0,0-0.1v-2.3c0-0.1,0-0.1,0.1-0.1l1.6-0.2c0.1,0,0.1,0.1,0.1,0.1V13
	c-0.5-0.2-1.1,0.1-1.2,0.6c0,0.1-0.1,0.2-0.1,0.3c0,0.5,0.4,1,1,1s1-0.4,1-1v-3H10.8z"/>
<path class="st4" d="M10.7,11.2C10.8,11.2,10.8,11.2,10.7,11.2l0.1,2.3c-0.1-0.1-0.3-0.2-0.5-0.2c-0.5,0-0.9,0.4-0.9,0.9
	s0.4,0.9,0.9,0.9s0.9-0.4,0.9-0.9v-3c0-0.3-0.2-0.5-0.5-0.4L8.1,11c-0.2,0-0.4,0.2-0.4,0.4v2.3c-0.1-0.1-0.3-0.2-0.5-0.2
	c-0.5,0-0.9,0.4-0.9,0.9s0.4,0.9,0.9,0.9s0.9-0.4,0.9-0.9v-3c0,0,0-0.1,0.1-0.1L10.7,11.2z"/>
<path class="st4" d="M11.6,11.7c-0.2-0.1-0.4,0-0.5,0.1l-0.6,0.5v-0.4c0-0.4-0.4-0.8-0.8-0.8H7.4c-0.4,0-0.8,0.4-0.8,0.8V14
	c0,0.4,0.4,0.8,0.8,0.8h2.4c0.4,0,0.8-0.4,0.8-0.8v-0.4l0.6,0.5c0.1,0.1,0.2,0.1,0.3,0.1s0.1,0,0.2,0c0.2-0.1,0.3-0.2,0.3-0.4V12
	C11.9,11.9,11.8,11.7,11.6,11.7"/>
<path class="st4" d="M10.8,10.5H7.3c-0.4,0-0.7,0.3-0.7,0.7v3.4c0,0.4,0.3,0.7,0.7,0.7h3.4c0.4,0,0.7-0.3,0.7-0.7v-3.4
	C11.5,10.8,11.2,10.5,10.8,10.5 M7.7,12.7H7.1v-0.5h0.5L7.7,12.7L7.7,12.7z M7.1,13.2h0.5v0.5H7.1V13.2z M8.2,11h1.6v3.8H8.2V11z
	 M11,12.7h-0.5v-0.5H11V12.7z M10.4,13.2H11v0.5h-0.5v-0.5H10.4z M11,11.2v0.3h-0.5V11h0.3C10.9,11,11,11.1,11,11.2 M7.3,11h0.3v0.5
	H7.1v-0.3C7.1,11.1,7.2,11,7.3,11 M7.1,14.7v-0.3h0.5v0.5H7.3C7.2,14.9,7.1,14.8,7.1,14.7 M11,14.7c0,0.1-0.1,0.2-0.2,0.2h-0.3v-0.5
	H11V14.7z"/>
<path class="st4" d="M10.1,10.8H8c0,0-0.3,0-0.3,0.3h2.7C10.4,10.8,10.1,10.8,10.1,10.8 M10.9,11.6c0-0.3-0.3-0.3-0.3-0.3H7.4
	c0,0-0.3,0-0.3,0.3v0.3h3.8V11.6z M11.5,11.9l-0.2-0.2v0.4H6.8v-0.4l-0.2,0.2c-0.2,0.2-0.3,0.2-0.2,0.5c0.1,0.3,0.4,2.2,0.4,2.4
	c0.1,0.3,0.3,0.3,0.3,0.3h3.8c0,0,0.3,0,0.3-0.3s0.4-2.1,0.4-2.4C11.7,12.1,11.6,12,11.5,11.9 M10.1,13.5c0,0.2-0.1,0.3-0.3,0.3H8.2
	c-0.2,0-0.3-0.1-0.3-0.3l0,0V13h0.3v0.5h1.6V13h0.3V13.5z"/>
<path class="st4" d="M8.1,12.3h1.2L9,12.9H8v2C8,15,8,15,8.1,15l0.7,0.1v0.4H6.6v-0.4H7c0.1,0,0.1,0,0.1-0.1v-2H7H6.6v-0.6h0.5V12
	c0-0.9,0.5-1.2,1.3-1.2c0.6,0,1.1,0.1,1.1,0.9l-0.9,0.1c0-0.3-0.1-0.4-0.3-0.4C8,11.4,8,11.6,8,11.9L8.1,12.3
	C8.1,12.3,8,12.3,8.1,12.3 M11.5,15.5H9.7v-0.4h0.4c0.1,0,0.1,0,0.1-0.1v-1.9c0-0.1-0.1-0.1-0.1-0.1l-0.4-0.1l0.1-0.5h1.4V15
	c0,0.1,0,0.1,0.1,0.1h0.3v0.4H11.5z M11.1,11.2l0.2,0.6l-0.1,0.1l-0.5-0.3L10,11.9l-0.1-0.1l0.2-0.6l-0.4-0.5l0.1-0.1h0.5l0.3-0.5
	h0.2l0.3,0.5h0.5l0.1,0.2L11.1,11.2z"/>
<path class="st8" d="M6.7,11.1c0-0.3,0.2-0.5,0.5-0.5h3.7c0.3,0,0.5,0.2,0.5,0.5v3.7c0,0.3-0.2,0.5-0.5,0.5H7.2
	c-0.3,0-0.5-0.2-0.5-0.5V11.1z M6.7,12.4h4.8 M8.5,10.6v4.8"/>
<g class="st9">
	<path class="st10" d="M7.4,15.7v-5.6h1v5.6C8.4,15.7,7.4,15.7,7.4,15.7z M7.9,13.6v-1h1.8c0.2,0,0.3-0.1,0.5-0.2
		c0.1-0.1,0.2-0.3,0.2-0.5s-0.1-0.4-0.2-0.5s-0.3-0.2-0.5-0.2H7.9v-1h1.7c0.4,0,0.7,0.1,0.9,0.2c0.3,0.1,0.5,0.3,0.6,0.6
		s0.2,0.6,0.2,0.9c0,0.3-0.1,0.6-0.2,0.9c-0.1,0.3-0.3,0.5-0.6,0.6s-0.6,0.2-0.9,0.2H7.9z"/>
</g>
<path class="st4" d="M6.5,10.4V12H7v1.8H6.5v1.6h1.6V15H10v0.5h1.6v-1.6h-0.5V12h0.5v-1.6H10v0.5H8.1v-0.5H6.5z M7,10.9h0.7v0.7H7
	V10.9z M10.4,10.9h0.7v0.7h-0.7V10.9z M8.1,11.3H10V12h0.7v1.8H10v0.7H8.1v-0.7H7.4V12h0.7V11.3z M7,14.3h0.7V15H7V14.3z M10.4,14.3
	h0.7V15h-0.7V14.3z"/>
</svg>
