<svg id="Layer_1" data-name="Layer 1" xmlns="http://www.w3.org/2000/svg" viewBox="0 0 13 13"><defs><style>.cls-1{fill:#8393c6;stroke:#fff;stroke-linecap:round;stroke-linejoin:round;}.cls-2{fill:#fff;}</style></defs><g id="Layer_2" data-name="Layer 2"><g id="Layer_1-2" data-name="Layer 1-2"><path class="cls-1" d="M13,5.19v3.6c0,3-1.2,4.21-4.21,4.21H5.21C2.21,13,1,11.8,1,8.79V5.19C1,2.2,2.2,1,5.21,1h3.6C11.8,1,13,2.2,13,5.19Z" transform="translate(-0.5 -0.5)"/><path class="cls-2" d="M3.66,3.66V5.75H4.3V8.21H3.66v2.13H5.79V9.7H8.25v.61h2.09V8.21H9.73V5.75h.61V3.66H8.25v.61H5.79V3.66Zm.64.61h.91v.91H4.3Zm4.55,0h.91v.91H8.82Zm-3,.61H8.25v.87h.91V8.21H8.25v.91H5.79V8.21H4.88V5.75h.91ZM4.3,8.82h.91V9.7H4.3Zm4.55,0h.91V9.7H8.82Z" transform="translate(-0.5 -0.5)"/></g></g></svg>