<svg xmlns="http://www.w3.org/2000/svg" viewBox="0 0 14 14"><defs><style>.cls-1{fill:#c6cff4;}.cls-1,.cls-2{stroke:#fff;stroke-linecap:round;stroke-linejoin:round;}.cls-2{fill:#3f51b5;}.cls-3{fill:#fff;}</style></defs><g id="Layer_2" data-name="Layer 2"><g id="Layer_1-2" data-name="Layer 1"><path class="cls-1" d="M13.5,3.68V6.41c0,2.28-.91,3.19-3.19,3.19H9.6v-2c0-2.27-.91-3.18-3.19-3.18h-2V3.68C4.4,1.4,5.31.5,7.59.5h2.73C12.59.5,13.5,1.41,13.5,3.68Z"/><path class="cls-2" d="M9.6,7.58v2.73c0,2.28-.91,3.19-3.19,3.19H3.69C1.42,13.5.5,12.59.5,10.31V7.58c0-2.27.91-3.18,3.19-3.18H6.42C8.69,4.4,9.6,5.31,9.6,7.58Z"/><path class="cls-3" d="M4.08,8.29H5.24L5,8.93h-1v2c0,.11,0,.12,0,.13l.75.07v.43H2.64V11.1l.37,0c.09,0,.11,0,.11-.14V9s-.05,0-.1,0H2.64V8.29h.48V7.93c0-.85.46-1.21,1.33-1.21.59,0,1.12.15,1.12.91l-.88.11c0-.32-.07-.4-.28-.4s-.32.17-.32.47v.41s-.06.07,0,.07m3.38,3.25H5.69v-.43l.35,0c.09,0,.13,0,.13-.13V9.08A.14.14,0,0,0,6.06,9l-.42-.11.12-.51H7.14v2.61c0,.1,0,.11.05.13l.27,0ZM7.08,7.18l.16.58-.13.12L6.58,7.6,6,7.88l-.13-.12.16-.58-.38-.45.06-.13h.48l.27-.48h.16l.26.48H7.4l.06.17Z"/></g></g></svg>