<svg id="Layer_1" data-name="Layer 1" xmlns="http://www.w3.org/2000/svg" viewBox="0 0 13 13"><defs><style>.cls-1{fill:#3f51b5;stroke:#fff;stroke-linecap:round;stroke-linejoin:round;}.cls-2{fill:#fff;}</style></defs><g id="Layer_2" data-name="Layer 2"><g id="Layer_1-2" data-name="Layer 1-2"><path class="cls-1" d="M13,5.19v3.6c0,3-1.2,4.21-4.21,4.21H5.21C2.21,13,1,11.8,1,8.79V5.19C1,2.2,2.2,1,5.21,1h3.6C11.8,1,13,2.2,13,5.19Z" transform="translate(-0.5 -0.5)"/><path class="cls-2" d="M5.72,6.13H7.25L6.93,7H5.62V9.78l1,.09v.57H3.82v-.6h.49c.12,0,.14,0,.14-.19V7.07H3.82V6.13h.63V5.65c0-1.12.61-1.59,1.76-1.59.78,0,1.48.2,1.48,1.2L6.53,5.4c0-.42-.1-.52-.37-.52s-.43.22-.43.62V6s-.08.09,0,.09m4.46,4.29H7.84V9.85h.47c.11,0,.17,0,.17-.17V7.17a.16.16,0,0,0-.15-.1l-.55-.15.16-.67H9.76V9.69c0,.13,0,.15.06.17h.36ZM9.68,4.67l.21.76-.17.16L9,5.22l-.77.37-.17-.16.21-.76-.5-.6.08-.17H8.5l.36-.63h.21l.34.63h.69l.08.23Z" transform="translate(-0.5 -0.5)"/></g></g></svg>