<svg xmlns="http://www.w3.org/2000/svg" viewBox="0 0 14 14"><defs><style>.cls-1{fill:#c4f2d6;}.cls-1,.cls-2,.cls-3{stroke:#fff;stroke-linecap:round;stroke-linejoin:round;}.cls-2{fill:#25aa5c;}.cls-3{fill:none;stroke-width:0.5px;}</style></defs><g id="Layer_2" data-name="Layer 2"><g id="Layer_1-2" data-name="Layer 1"><path class="cls-1" d="M13.5,3.68V6.41c0,2.28-.91,3.19-3.19,3.19H9.6v-2c0-2.27-.91-3.18-3.19-3.18h-2V3.68C4.4,1.4,5.31.5,7.59.5h2.73C12.59.5,13.5,1.41,13.5,3.68Z"/><path class="cls-2" d="M9.6,7.58v2.73c0,2.28-.91,3.19-3.19,3.19H3.69C1.42,13.5.5,12.59.5,10.31V7.58c0-2.27.91-3.18,3.19-3.18H6.42C8.69,4.4,9.6,5.31,9.6,7.58Z"/><path class="cls-3" d="M2.67,7.1a.53.53,0,0,1,.53-.53H6.9a.53.53,0,0,1,.53.53v3.7a.53.53,0,0,1-.53.53H3.2a.53.53,0,0,1-.53-.53Zm0,1.32H7.43M4.52,6.57v4.76"/></g></g></svg>