<svg id="Layer_1" data-name="Layer 1" xmlns="http://www.w3.org/2000/svg" viewBox="0 0 13 13"><defs><style>.cls-1{fill:#59b9be;stroke:#fff;stroke-linecap:round;stroke-linejoin:round;}.cls-2{fill:#fff;}</style></defs><g id="Layer_2" data-name="Layer 2"><g id="Layer_1-2" data-name="Layer 1-2"><path class="cls-1" d="M13,5.19v3.6c0,3-1.2,4.21-4.21,4.21H5.21C2.21,13,1,11.8,1,8.79V5.19C1,2.2,2.2,1,5.21,1h3.6C11.8,1,13,2.2,13,5.19Z" transform="translate(-0.5 -0.5)"/><path class="cls-2" d="M9.22,4.64a.08.08,0,0,1,.09.06v3a1.18,1.18,0,1,0-.7,2.13A1.19,1.19,0,0,0,9.8,8.64v-4a.57.57,0,0,0-.57-.57H9.18L5.8,4.43A.57.57,0,0,0,5.27,5V8a1.14,1.14,0,0,0-.67-.22A1.17,1.17,0,1,0,5.76,9h0V5A.08.08,0,0,1,5.84,5Z" transform="translate(-0.5 -0.5)"/></g></g></svg>