<svg id="Layer_1" data-name="Layer 1" xmlns="http://www.w3.org/2000/svg" viewBox="0 0 13 13"><defs><style>.cls-1{fill:#ed981e;stroke:#fff;stroke-linecap:round;stroke-linejoin:round;}.cls-2{fill:#fff;}</style></defs><g id="Layer_2" data-name="Layer 2"><g id="Layer_1-2" data-name="Layer 1-2"><path class="cls-1" d="M13,5.19v3.6c0,3-1.2,4.21-4.21,4.21H5.21C2.21,13,1,11.8,1,8.79V5.19C1,2.2,2.2,1,5.21,1h3.6C11.8,1,13,2.2,13,5.19Z" transform="translate(-0.5 -0.5)"/><polygon class="cls-2" points="2.29 9.77 10.71 9.77 8.08 6.26 5.97 9.06 4.39 6.96 2.29 9.77"/><path class="cls-2" d="M4.55,5.35a1,1,0,0,0,.74-.3,1,1,0,0,0,0-1.47v0a1.05,1.05,0,0,0-.74-.31,1,1,0,0,0-.75.31,1.06,1.06,0,0,0,0,1.49,1,1,0,0,0,.75.3" transform="translate(-0.5 -0.5)"/></g></g></svg>