<svg id="Layer_1" data-name="Layer 1" xmlns="http://www.w3.org/2000/svg" viewBox="0 0 94 94">
    <path fill="#172554" d="M86,79.61H8a.76.76,0,0,1-.75-.75V36.58a4.5,4.5,0,0,1,4.49-4.49H38.45a.75.75,0,0,1,0,1.5H11.7a3,3,0,0,0-3,3V78.11H85.29V36.58a3,3,0,0,0-3-3H55.55a.75.75,0,0,1,0-1.5H82.3a4.5,4.5,0,0,1,4.49,4.49V78.86A.76.76,0,0,1,86,79.61Z"/>
    <path fill="#172554" d="M86.3,88.26H7.7a6.45,6.45,0,0,1-6.45-6.45A.75.75,0,0,1,2,81.06H40.38a.76.76,0,0,1,.69.45l.43,1H52.6l.43-1a.76.76,0,0,1,.69-.45H92a.75.75,0,0,1,.75.75A6.45,6.45,0,0,1,86.3,88.26ZM2.81,82.56a5,5,0,0,0,4.89,4.2H86.3a5,5,0,0,0,4.89-4.2h-37l-.43,1a.75.75,0,0,1-.69.46H41a.75.75,0,0,1-.69-.46l-.43-1Z"/>
    <path fill="#172554" d="M21.89,77.39a.8.8,0,0,1-.3-.06.76.76,0,0,1-.39-1,9.42,9.42,0,0,1,11.46-5,5.08,5.08,0,0,1,4.24-2.67,4.34,4.34,0,0,1,1.21-2.5,3.81,3.81,0,0,1,2.51-1A4.7,4.7,0,0,1,44.16,61a.75.75,0,0,1,.36,1.46c-2.58.64-2.44,3.42-2.43,3.54a.74.74,0,0,1-.23.58.7.7,0,0,1-.59.21,2.62,2.62,0,0,0-2.12.55,3.31,3.31,0,0,0-.82,2.23.74.74,0,0,1-.27.6.71.71,0,0,1-.64.15c-2.34-.53-3.66,2.2-3.71,2.32a.76.76,0,0,1-.92.4c-7.3-2.44-10.1,3.69-10.21,4A.76.76,0,0,1,21.89,77.39Z"/>
    <path fill="#172554" d="M72.11,77.39a.76.76,0,0,1-.69-.45c-.11-.26-2.91-6.39-10.21-4a.76.76,0,0,1-.92-.4c0-.12-1.37-2.85-3.71-2.32a.71.71,0,0,1-.64-.15.75.75,0,0,1-.27-.61,3.3,3.3,0,0,0-.82-2.22,2.61,2.61,0,0,0-2.12-.55.71.71,0,0,1-.59-.21.74.74,0,0,1-.23-.58c0-.12.13-2.91-2.43-3.54A.75.75,0,0,1,49.84,61a4.7,4.7,0,0,1,3.54,4.27,3.81,3.81,0,0,1,2.51,1,4.34,4.34,0,0,1,1.21,2.5c2-.08,3.49,1.46,4.24,2.67a9.42,9.42,0,0,1,11.46,5,.76.76,0,0,1-.39,1A.8.8,0,0,1,72.11,77.39Z"/>
    <path fill="#172554" d="M50.38,52.73H43.62a.75.75,0,0,1,0-1.5h6.76a.75.75,0,0,1,0,1.5Z"/>
    <path fill="#172554" d="M50.38,52.72a.74.74,0,0,1-.42-.13.75.75,0,0,1-.2-1c2.53-3.73,4.16-11.72,4.16-20.36,0-10.29-5.13-19.07-6.92-21.81-1.79,2.74-6.92,11.54-6.92,21.81,0,8.64,1.63,16.63,4.16,20.36a.75.75,0,0,1-.2,1,.74.74,0,0,1-1-.2c-2.73-4-4.42-12.15-4.42-21.2C38.58,18.31,46.08,8,46.4,7.6a.77.77,0,0,1,1.2,0c.32.43,7.82,10.71,7.82,23.59,0,9.05-1.69,17.18-4.42,21.2A.73.73,0,0,1,50.38,52.72Z"/>
    <path fill="#172554" d="M53.1,21.59a.76.76,0,0,1-.21,0l-4.27-1.28a5.76,5.76,0,0,0-3.24,0l-4.26,1.28a.75.75,0,1,1-.43-1.44L45,18.85a7.15,7.15,0,0,1,4.1,0l4.27,1.27a.75.75,0,0,1-.22,1.47Z"/>
    <path fill="#172554" d="M35.21,55.13h-.05a.76.76,0,0,1-.69-.6C30.55,35,38.73,31.74,39.08,31.61A.75.75,0,0,1,39.6,33c-.1,0-6.59,2.85-4.12,18.62,1-2.31,2.83-5.56,5.18-6.72a.75.75,0,0,1,1,.34.74.74,0,0,1-.34,1c-3.16,1.57-5.38,8.28-5.4,8.35A.75.75,0,0,1,35.21,55.13Z"/>
    <path fill="#172554" d="M58.79,55.13a.75.75,0,0,1-.71-.52c0-.07-2.24-6.78-5.4-8.35a.74.74,0,0,1-.34-1,.75.75,0,0,1,1-.34c2.35,1.16,4.15,4.41,5.18,6.72C61,35.82,54.46,33,54.4,33a.75.75,0,0,1,.52-1.41c.35.13,8.53,3.41,4.61,22.92a.76.76,0,0,1-.69.6Z"/>
    <path fill="#172554" d="M47,62.43a.76.76,0,0,1-.75-.75v-7.3a.75.75,0,1,1,1.5,0v7.3A.76.76,0,0,1,47,62.43Z"/>
    <path fill="#172554" d="M44.23,59a.74.74,0,0,1-.75-.75V54.38a.75.75,0,0,1,1.5,0V58.2A.75.75,0,0,1,44.23,59Z"/>
    <path fill="#172554" d="M49.66,59a.75.75,0,0,1-.75-.75V54.38a.75.75,0,1,1,1.5,0V58.2A.74.74,0,0,1,49.66,59Z"/>
    <path fill="#FF764C" d="M47,29.48a3.42,3.42,0,1,1,3.42-3.42A3.43,3.43,0,0,1,47,29.48Zm0-5.34a1.92,1.92,0,1,0,1.92,1.92A1.92,1.92,0,0,0,47,24.14Z"/>
</svg>